<mxfile host="app.diagrams.net" agent="Mozilla/5.0 (Macintosh; Intel Mac OS X 10_15_7) AppleWebKit/537.36 (KHTML, like Gecko) Chrome/128.0.0.0 Safari/537.36" version="24.8.4">
  <diagram name="第 1 页" id="c6OIHfjFz0FsuGp-9Wa2">
    <mxGraphModel dx="954" dy="528" grid="1" gridSize="10" guides="1" tooltips="1" connect="1" arrows="1" fold="1" page="1" pageScale="1" pageWidth="827" pageHeight="1169" math="0" shadow="0">
      <root>
        <mxCell id="0" />
        <mxCell id="1" parent="0" />
        <mxCell id="nBbI-WNCIoYUmye85lhI-3" style="edgeStyle=orthogonalEdgeStyle;rounded=0;orthogonalLoop=1;jettySize=auto;html=1;exitX=1;exitY=0.5;exitDx=0;exitDy=0;entryX=0;entryY=0.5;entryDx=0;entryDy=0;" edge="1" parent="1" source="nBbI-WNCIoYUmye85lhI-1" target="nBbI-WNCIoYUmye85lhI-2">
          <mxGeometry relative="1" as="geometry" />
        </mxCell>
        <mxCell id="nBbI-WNCIoYUmye85lhI-4" value="下单" style="edgeLabel;html=1;align=center;verticalAlign=middle;resizable=0;points=[];" vertex="1" connectable="0" parent="nBbI-WNCIoYUmye85lhI-3">
          <mxGeometry x="-0.25" y="-3" relative="1" as="geometry">
            <mxPoint y="-3" as="offset" />
          </mxGeometry>
        </mxCell>
        <mxCell id="nBbI-WNCIoYUmye85lhI-1" value="" style="ellipse;whiteSpace=wrap;html=1;aspect=fixed;" vertex="1" parent="1">
          <mxGeometry x="80" y="230" width="80" height="80" as="geometry" />
        </mxCell>
        <mxCell id="nBbI-WNCIoYUmye85lhI-6" value="" style="edgeStyle=orthogonalEdgeStyle;rounded=0;orthogonalLoop=1;jettySize=auto;html=1;" edge="1" parent="1" source="nBbI-WNCIoYUmye85lhI-2" target="nBbI-WNCIoYUmye85lhI-5">
          <mxGeometry relative="1" as="geometry" />
        </mxCell>
        <mxCell id="nBbI-WNCIoYUmye85lhI-2" value="ORDER_WAIT_PAY&lt;div&gt;(&quot;待支付&quot;)&lt;/div&gt;" style="rounded=0;whiteSpace=wrap;html=1;" vertex="1" parent="1">
          <mxGeometry x="240" y="240" width="130" height="60" as="geometry" />
        </mxCell>
        <mxCell id="nBbI-WNCIoYUmye85lhI-8" value="" style="edgeStyle=orthogonalEdgeStyle;rounded=0;orthogonalLoop=1;jettySize=auto;html=1;" edge="1" parent="1" source="nBbI-WNCIoYUmye85lhI-5" target="nBbI-WNCIoYUmye85lhI-7">
          <mxGeometry relative="1" as="geometry" />
        </mxCell>
        <mxCell id="nBbI-WNCIoYUmye85lhI-23" style="edgeStyle=orthogonalEdgeStyle;rounded=0;orthogonalLoop=1;jettySize=auto;html=1;exitX=0.5;exitY=1;exitDx=0;exitDy=0;entryX=0.5;entryY=0;entryDx=0;entryDy=0;" edge="1" parent="1" source="nBbI-WNCIoYUmye85lhI-5" target="nBbI-WNCIoYUmye85lhI-14">
          <mxGeometry relative="1" as="geometry" />
        </mxCell>
        <mxCell id="nBbI-WNCIoYUmye85lhI-24" value="" style="edgeStyle=orthogonalEdgeStyle;rounded=0;orthogonalLoop=1;jettySize=auto;html=1;" edge="1" parent="1" source="nBbI-WNCIoYUmye85lhI-5" target="nBbI-WNCIoYUmye85lhI-15">
          <mxGeometry relative="1" as="geometry" />
        </mxCell>
        <mxCell id="nBbI-WNCIoYUmye85lhI-5" value="ORDER_WAIT_CONFIRM&lt;div&gt;(&quot;待确认&quot;)&lt;/div&gt;" style="rounded=0;whiteSpace=wrap;html=1;" vertex="1" parent="1">
          <mxGeometry x="414" y="240" width="146" height="60" as="geometry" />
        </mxCell>
        <mxCell id="nBbI-WNCIoYUmye85lhI-10" value="" style="edgeStyle=orthogonalEdgeStyle;rounded=0;orthogonalLoop=1;jettySize=auto;html=1;" edge="1" parent="1" source="nBbI-WNCIoYUmye85lhI-7" target="nBbI-WNCIoYUmye85lhI-9">
          <mxGeometry relative="1" as="geometry" />
        </mxCell>
        <mxCell id="nBbI-WNCIoYUmye85lhI-27" style="edgeStyle=orthogonalEdgeStyle;rounded=0;orthogonalLoop=1;jettySize=auto;html=1;exitX=0.5;exitY=0;exitDx=0;exitDy=0;entryX=0.5;entryY=1;entryDx=0;entryDy=0;" edge="1" parent="1" source="nBbI-WNCIoYUmye85lhI-7" target="nBbI-WNCIoYUmye85lhI-15">
          <mxGeometry relative="1" as="geometry" />
        </mxCell>
        <mxCell id="nBbI-WNCIoYUmye85lhI-7" value="ORDER_WAIT_USE&lt;div&gt;(&quot;待使用&quot;)&lt;br&gt;&lt;/div&gt;" style="rounded=0;whiteSpace=wrap;html=1;" vertex="1" parent="1">
          <mxGeometry x="600" y="240" width="146" height="60" as="geometry" />
        </mxCell>
        <mxCell id="nBbI-WNCIoYUmye85lhI-12" value="" style="edgeStyle=orthogonalEdgeStyle;rounded=0;orthogonalLoop=1;jettySize=auto;html=1;" edge="1" parent="1" source="nBbI-WNCIoYUmye85lhI-9" target="nBbI-WNCIoYUmye85lhI-11">
          <mxGeometry relative="1" as="geometry" />
        </mxCell>
        <mxCell id="nBbI-WNCIoYUmye85lhI-28" style="edgeStyle=orthogonalEdgeStyle;rounded=0;orthogonalLoop=1;jettySize=auto;html=1;entryX=0.5;entryY=1;entryDx=0;entryDy=0;exitX=0.5;exitY=0;exitDx=0;exitDy=0;" edge="1" parent="1">
          <mxGeometry relative="1" as="geometry">
            <mxPoint x="853" y="236" as="sourcePoint" />
            <mxPoint x="487" y="141" as="targetPoint" />
            <Array as="points">
              <mxPoint x="853" y="191" />
              <mxPoint x="487" y="191" />
            </Array>
          </mxGeometry>
        </mxCell>
        <mxCell id="nBbI-WNCIoYUmye85lhI-9" value="&lt;div&gt;ORDER_CHECKED_IN&lt;/div&gt;&lt;div&gt;(&quot;已入住&quot;)&lt;br&gt;&lt;/div&gt;" style="rounded=0;whiteSpace=wrap;html=1;" vertex="1" parent="1">
          <mxGeometry x="780" y="240" width="146" height="60" as="geometry" />
        </mxCell>
        <mxCell id="nBbI-WNCIoYUmye85lhI-11" value="&lt;div&gt;ORDER_FINISHED&lt;/div&gt;&lt;div&gt;(&quot;已结账&quot;)&lt;br&gt;&lt;/div&gt;" style="rounded=0;whiteSpace=wrap;html=1;fillColor=#cdeb8b;strokeColor=#36393d;" vertex="1" parent="1">
          <mxGeometry x="780" y="383" width="146" height="60" as="geometry" />
        </mxCell>
        <mxCell id="nBbI-WNCIoYUmye85lhI-13" value="&lt;div&gt;ORDER_CANCELLED&lt;/div&gt;&lt;div&gt;(&quot;已取消&quot;)&lt;br&gt;&lt;/div&gt;" style="rounded=0;whiteSpace=wrap;html=1;fillColor=#cdeb8b;strokeColor=#36393d;" vertex="1" parent="1">
          <mxGeometry x="240" y="383" width="146" height="60" as="geometry" />
        </mxCell>
        <mxCell id="nBbI-WNCIoYUmye85lhI-14" value="&lt;div&gt;ORDER_REJECTED&lt;/div&gt;&lt;div&gt;(&quot;已拒绝&quot;)&lt;br&gt;&lt;/div&gt;" style="rounded=0;whiteSpace=wrap;html=1;fillColor=#cdeb8b;strokeColor=#36393d;" vertex="1" parent="1">
          <mxGeometry x="414" y="383" width="146" height="60" as="geometry" />
        </mxCell>
        <mxCell id="nBbI-WNCIoYUmye85lhI-25" value="" style="edgeStyle=orthogonalEdgeStyle;rounded=0;orthogonalLoop=1;jettySize=auto;html=1;" edge="1" parent="1" source="nBbI-WNCIoYUmye85lhI-15" target="nBbI-WNCIoYUmye85lhI-17">
          <mxGeometry relative="1" as="geometry" />
        </mxCell>
        <mxCell id="nBbI-WNCIoYUmye85lhI-26" style="edgeStyle=orthogonalEdgeStyle;rounded=0;orthogonalLoop=1;jettySize=auto;html=1;entryX=0;entryY=0.5;entryDx=0;entryDy=0;" edge="1" parent="1" source="nBbI-WNCIoYUmye85lhI-15" target="nBbI-WNCIoYUmye85lhI-16">
          <mxGeometry relative="1" as="geometry" />
        </mxCell>
        <mxCell id="nBbI-WNCIoYUmye85lhI-15" value="&lt;div&gt;ORDER_REFUNDING&lt;/div&gt;&lt;div&gt;(&quot;退款中&quot;)&lt;br&gt;&lt;/div&gt;" style="rounded=0;whiteSpace=wrap;html=1;" vertex="1" parent="1">
          <mxGeometry x="414" y="80" width="146" height="60" as="geometry" />
        </mxCell>
        <mxCell id="nBbI-WNCIoYUmye85lhI-16" value="&lt;div&gt;&lt;span style=&quot;background-color: initial;&quot;&gt;ORDER_REFUNDED&lt;/span&gt;&lt;br&gt;&lt;/div&gt;&lt;div&gt;(&quot;退款成功&quot;)&lt;br&gt;&lt;/div&gt;" style="rounded=0;whiteSpace=wrap;html=1;fillColor=#cdeb8b;strokeColor=#36393d;" vertex="1" parent="1">
          <mxGeometry x="670" y="20" width="146" height="60" as="geometry" />
        </mxCell>
        <mxCell id="nBbI-WNCIoYUmye85lhI-17" value="&lt;div&gt;ORDER_REFUND_FAIL&lt;/div&gt;&lt;div&gt;(&quot;退款失败&quot;)&lt;br&gt;&lt;/div&gt;" style="rounded=0;whiteSpace=wrap;html=1;fillColor=#cdeb8b;strokeColor=#36393d;" vertex="1" parent="1">
          <mxGeometry x="670" y="120" width="146" height="60" as="geometry" />
        </mxCell>
        <mxCell id="nBbI-WNCIoYUmye85lhI-21" style="edgeStyle=orthogonalEdgeStyle;rounded=0;orthogonalLoop=1;jettySize=auto;html=1;exitX=0.5;exitY=1;exitDx=0;exitDy=0;entryX=0.445;entryY=0.05;entryDx=0;entryDy=0;entryPerimeter=0;" edge="1" parent="1" source="nBbI-WNCIoYUmye85lhI-2" target="nBbI-WNCIoYUmye85lhI-13">
          <mxGeometry relative="1" as="geometry" />
        </mxCell>
      </root>
    </mxGraphModel>
  </diagram>
</mxfile>
